<mxfile host="app.diagrams.net" agent="Mozilla/5.0 (X11; Ubuntu; Linux x86_64; rv:141.0) Gecko/20100101 Firefox/141.0" version="28.0.7">
  <diagram name="Page-1" id="pnRl31Y829p4tH7Jc20N">
    <mxGraphModel dx="679" dy="380" grid="1" gridSize="5" guides="1" tooltips="1" connect="1" arrows="1" fold="1" page="1" pageScale="1" pageWidth="850" pageHeight="1100" math="0" shadow="0">
      <root>
        <mxCell id="0" />
        <mxCell id="1" parent="0" />
        <mxCell id="kQxvM6XSIJOkBm3As1Rs-1" value="Cochlea" style="rounded=0;whiteSpace=wrap;html=1;" vertex="1" parent="1">
          <mxGeometry x="140" y="160" width="60" height="200" as="geometry" />
        </mxCell>
        <mxCell id="kQxvM6XSIJOkBm3As1Rs-3" value="Amplifier" style="rounded=0;whiteSpace=wrap;html=1;" vertex="1" parent="1">
          <mxGeometry x="230" y="170" width="50" height="20" as="geometry" />
        </mxCell>
        <mxCell id="kQxvM6XSIJOkBm3As1Rs-4" value="Amplifier" style="rounded=0;whiteSpace=wrap;html=1;" vertex="1" parent="1">
          <mxGeometry x="230" y="200" width="50" height="20" as="geometry" />
        </mxCell>
        <mxCell id="kQxvM6XSIJOkBm3As1Rs-5" value="Amplifier" style="rounded=0;whiteSpace=wrap;html=1;" vertex="1" parent="1">
          <mxGeometry x="230" y="330" width="50" height="20" as="geometry" />
        </mxCell>
        <mxCell id="kQxvM6XSIJOkBm3As1Rs-6" value="" style="endArrow=classic;html=1;rounded=0;entryX=0;entryY=0.5;entryDx=0;entryDy=0;" edge="1" parent="1" target="kQxvM6XSIJOkBm3As1Rs-5">
          <mxGeometry width="50" height="50" relative="1" as="geometry">
            <mxPoint x="200" y="339.76" as="sourcePoint" />
            <mxPoint x="220" y="339.76" as="targetPoint" />
          </mxGeometry>
        </mxCell>
        <mxCell id="kQxvM6XSIJOkBm3As1Rs-7" value="0-1V" style="edgeLabel;html=1;align=center;verticalAlign=middle;resizable=0;points=[];" vertex="1" connectable="0" parent="kQxvM6XSIJOkBm3As1Rs-6">
          <mxGeometry x="-0.1381" y="-2" relative="1" as="geometry">
            <mxPoint x="1" y="8" as="offset" />
          </mxGeometry>
        </mxCell>
        <mxCell id="kQxvM6XSIJOkBm3As1Rs-8" value="" style="endArrow=classic;html=1;rounded=0;entryX=0;entryY=0.5;entryDx=0;entryDy=0;" edge="1" parent="1">
          <mxGeometry width="50" height="50" relative="1" as="geometry">
            <mxPoint x="200" y="209.76" as="sourcePoint" />
            <mxPoint x="230" y="210" as="targetPoint" />
          </mxGeometry>
        </mxCell>
        <mxCell id="kQxvM6XSIJOkBm3As1Rs-9" value="0-1V" style="edgeLabel;html=1;align=center;verticalAlign=middle;resizable=0;points=[];" vertex="1" connectable="0" parent="kQxvM6XSIJOkBm3As1Rs-8">
          <mxGeometry x="-0.1381" y="-2" relative="1" as="geometry">
            <mxPoint x="1" y="8" as="offset" />
          </mxGeometry>
        </mxCell>
        <mxCell id="kQxvM6XSIJOkBm3As1Rs-10" value="" style="endArrow=classic;html=1;rounded=0;entryX=0;entryY=0.5;entryDx=0;entryDy=0;" edge="1" parent="1">
          <mxGeometry width="50" height="50" relative="1" as="geometry">
            <mxPoint x="200" y="179.76" as="sourcePoint" />
            <mxPoint x="230" y="180" as="targetPoint" />
          </mxGeometry>
        </mxCell>
        <mxCell id="kQxvM6XSIJOkBm3As1Rs-11" value="0-1V" style="edgeLabel;html=1;align=center;verticalAlign=middle;resizable=0;points=[];" vertex="1" connectable="0" parent="kQxvM6XSIJOkBm3As1Rs-10">
          <mxGeometry x="-0.1381" y="-2" relative="1" as="geometry">
            <mxPoint x="1" y="8" as="offset" />
          </mxGeometry>
        </mxCell>
        <mxCell id="kQxvM6XSIJOkBm3As1Rs-12" value="" style="endArrow=classic;html=1;rounded=0;" edge="1" parent="1">
          <mxGeometry width="50" height="50" relative="1" as="geometry">
            <mxPoint x="280" y="179.76" as="sourcePoint" />
            <mxPoint x="320" y="180" as="targetPoint" />
          </mxGeometry>
        </mxCell>
        <mxCell id="kQxvM6XSIJOkBm3As1Rs-13" value="0-3.3V" style="edgeLabel;html=1;align=center;verticalAlign=middle;resizable=0;points=[];" vertex="1" connectable="0" parent="kQxvM6XSIJOkBm3As1Rs-12">
          <mxGeometry x="-0.1381" y="-2" relative="1" as="geometry">
            <mxPoint x="1" y="8" as="offset" />
          </mxGeometry>
        </mxCell>
        <mxCell id="kQxvM6XSIJOkBm3As1Rs-14" value="" style="endArrow=classic;html=1;rounded=0;" edge="1" parent="1">
          <mxGeometry width="50" height="50" relative="1" as="geometry">
            <mxPoint x="280" y="209.76" as="sourcePoint" />
            <mxPoint x="320" y="210" as="targetPoint" />
          </mxGeometry>
        </mxCell>
        <mxCell id="kQxvM6XSIJOkBm3As1Rs-15" value="0-3.3V" style="edgeLabel;html=1;align=center;verticalAlign=middle;resizable=0;points=[];" vertex="1" connectable="0" parent="kQxvM6XSIJOkBm3As1Rs-14">
          <mxGeometry x="-0.1381" y="-2" relative="1" as="geometry">
            <mxPoint x="1" y="8" as="offset" />
          </mxGeometry>
        </mxCell>
        <mxCell id="kQxvM6XSIJOkBm3As1Rs-16" value="" style="endArrow=classic;html=1;rounded=0;" edge="1" parent="1">
          <mxGeometry width="50" height="50" relative="1" as="geometry">
            <mxPoint x="280" y="339.76" as="sourcePoint" />
            <mxPoint x="320" y="340" as="targetPoint" />
          </mxGeometry>
        </mxCell>
        <mxCell id="kQxvM6XSIJOkBm3As1Rs-17" value="0-3.3V" style="edgeLabel;html=1;align=center;verticalAlign=middle;resizable=0;points=[];" vertex="1" connectable="0" parent="kQxvM6XSIJOkBm3As1Rs-16">
          <mxGeometry x="-0.1381" y="-2" relative="1" as="geometry">
            <mxPoint x="1" y="8" as="offset" />
          </mxGeometry>
        </mxCell>
        <mxCell id="kQxvM6XSIJOkBm3As1Rs-18" value="Spike Detector" style="rounded=0;whiteSpace=wrap;html=1;" vertex="1" parent="1">
          <mxGeometry x="320" y="327.5" width="60" height="25" as="geometry" />
        </mxCell>
        <mxCell id="kQxvM6XSIJOkBm3As1Rs-19" value="Spike Detector" style="rounded=0;whiteSpace=wrap;html=1;" vertex="1" parent="1">
          <mxGeometry x="320" y="197.5" width="60" height="25" as="geometry" />
        </mxCell>
        <mxCell id="kQxvM6XSIJOkBm3As1Rs-20" value="Spike Detector" style="rounded=0;whiteSpace=wrap;html=1;" vertex="1" parent="1">
          <mxGeometry x="320" y="167.5" width="60" height="25" as="geometry" />
        </mxCell>
        <mxCell id="kQxvM6XSIJOkBm3As1Rs-24" value="&lt;div&gt;ModNEF&lt;/div&gt;&lt;div&gt;Network&lt;/div&gt;" style="rounded=0;whiteSpace=wrap;html=1;" vertex="1" parent="1">
          <mxGeometry x="410" y="160" width="130" height="200" as="geometry" />
        </mxCell>
        <mxCell id="kQxvM6XSIJOkBm3As1Rs-29" style="edgeStyle=orthogonalEdgeStyle;rounded=0;orthogonalLoop=1;jettySize=auto;html=1;exitX=0.75;exitY=0;exitDx=0;exitDy=0;entryX=0.5;entryY=1;entryDx=0;entryDy=0;" edge="1" parent="1" source="kQxvM6XSIJOkBm3As1Rs-25" target="kQxvM6XSIJOkBm3As1Rs-24">
          <mxGeometry relative="1" as="geometry" />
        </mxCell>
        <mxCell id="kQxvM6XSIJOkBm3As1Rs-25" value="Network Scheduler" style="rounded=0;whiteSpace=wrap;html=1;" vertex="1" parent="1">
          <mxGeometry x="320" y="380" width="220" height="20" as="geometry" />
        </mxCell>
        <mxCell id="kQxvM6XSIJOkBm3As1Rs-26" value="" style="endArrow=classic;html=1;rounded=0;" edge="1" parent="1">
          <mxGeometry width="50" height="50" relative="1" as="geometry">
            <mxPoint x="380" y="339.76" as="sourcePoint" />
            <mxPoint x="410" y="339.76" as="targetPoint" />
          </mxGeometry>
        </mxCell>
        <mxCell id="kQxvM6XSIJOkBm3As1Rs-27" value="" style="endArrow=classic;html=1;rounded=0;" edge="1" parent="1">
          <mxGeometry width="50" height="50" relative="1" as="geometry">
            <mxPoint x="380" y="209.76" as="sourcePoint" />
            <mxPoint x="410" y="209.76" as="targetPoint" />
          </mxGeometry>
        </mxCell>
        <mxCell id="kQxvM6XSIJOkBm3As1Rs-28" value="" style="endArrow=classic;html=1;rounded=0;" edge="1" parent="1">
          <mxGeometry width="50" height="50" relative="1" as="geometry">
            <mxPoint x="380" y="179.76" as="sourcePoint" />
            <mxPoint x="410" y="179.76" as="targetPoint" />
          </mxGeometry>
        </mxCell>
        <mxCell id="kQxvM6XSIJOkBm3As1Rs-34" value="" style="rounded=0;whiteSpace=wrap;html=1;fillColor=none;dashed=1;" vertex="1" parent="1">
          <mxGeometry x="300" y="140" width="260" height="280" as="geometry" />
        </mxCell>
        <mxCell id="kQxvM6XSIJOkBm3As1Rs-35" value="FPGA" style="text;html=1;align=center;verticalAlign=middle;whiteSpace=wrap;rounded=0;" vertex="1" parent="1">
          <mxGeometry x="395" y="115" width="60" height="30" as="geometry" />
        </mxCell>
        <mxCell id="kQxvM6XSIJOkBm3As1Rs-36" value="" style="rounded=0;whiteSpace=wrap;html=1;fillColor=none;dashed=1;" vertex="1" parent="1">
          <mxGeometry x="120" y="140" width="170" height="240" as="geometry" />
        </mxCell>
        <mxCell id="kQxvM6XSIJOkBm3As1Rs-37" value="Analog" style="text;html=1;align=center;verticalAlign=middle;whiteSpace=wrap;rounded=0;" vertex="1" parent="1">
          <mxGeometry x="175" y="115" width="60" height="30" as="geometry" />
        </mxCell>
      </root>
    </mxGraphModel>
  </diagram>
</mxfile>
